<svg width="131" height="20" viewBox="0 0 131 20" fill="none" xmlns="http://www.w3.org/2000/svg">
<path d="M0 19.413V0.572266H10.4565V1.99719C9.53846 1.80233 8.50115 1.71708 7.38038 1.71708H2.70654V8.93914H9.69347V10.084H2.70654V18.2803H7.51154C8.63231 18.2803 9.66962 18.1951 10.5877 18.0002V19.4251H0V19.413Z" fill="black"/>
<path d="M19.3442 0.572266C25.4726 0.572266 29.4907 4.33554 29.4907 9.99871C29.4907 15.6497 25.4607 19.4251 19.3442 19.4251H13.3945V0.572266H19.3442ZM16.1011 18.2682H18.0326C24.2922 18.2682 26.6649 14.8946 26.6649 9.96217C26.6649 4.90794 24.2565 1.7049 18.0326 1.7049H16.1011V18.2682Z" fill="currentColor"/>
<path d="M35.3042 0.572266V19.413H32.5977V0.572266H35.3042Z" fill="black"/>
<path d="M45.7843 19.413H43.0777V1.71708H40.4785C39.3577 1.71708 38.3204 1.80233 37.4023 1.99719V0.572266H51.4597V1.99719C50.5416 1.80233 49.5043 1.71708 48.3835 1.71708H45.7843V19.413Z" fill="black"/>
<path d="M73.4481 0.572266V19.413H70.7415V9.85256H61.4058V19.413H58.6992V0.572266H61.4058V8.57378H70.7415V0.572266H73.4481Z" fill="black"/>
<path d="M95.238 9.96149C95.238 15.3933 91.7683 19.7046 85.8783 19.7046C79.9287 19.7046 76.5664 15.3933 76.5664 9.96149C76.5664 4.5419 80.0003 0.279297 85.9022 0.279297C91.7683 0.279297 95.238 4.56626 95.238 9.96149ZM92.4122 9.96149C92.4122 5.71107 90.4806 1.44847 85.9022 1.44847C81.3237 1.44847 79.3922 5.69889 79.3922 9.96149C79.3922 14.2485 81.2641 18.438 85.8783 18.438C90.4806 18.4502 92.4122 14.2485 92.4122 9.96149Z" fill="black"/>
<path d="M106.832 16.2218H106.939L114.653 0.571927H115.488V19.4126H112.913L113.056 7.0998H112.972L106.796 19.5466H105.985L99.7256 7.0998H99.6421L99.7494 16.2705C99.7494 17.4153 99.8329 18.4383 100.059 19.4126H98.1875V0.425781H99.0221L106.832 16.2218Z" fill="black"/>
<path d="M119.414 19.413V0.572266H129.871V1.99719C128.953 1.80233 127.915 1.71708 126.794 1.71708H122.121V8.93914H129.108V10.084H122.121V18.2803H126.926C128.046 18.2803 129.084 18.1951 130.002 18.0002V19.4251H119.414V19.413Z" fill="black"/>
</svg>
